      <svg aria-label="Логотип" class="hero__logo"  viewBox="0 0 100 94" fill="none" xmlns="http://www.w3.org/2000/svg">
        <g clip-path="url(#clip0_1_2)">
        <path d="M363.125 0H-0.625V374.569H363.125V0Z" fill="transparent"/>
        <path d="M2 89L99 89" stroke="black" stroke-dasharray="97" stroke-dashoffset="97" stroke-width="0.73866">
          <animate
            id="p1"
            attributeName="stroke-dashoffset"
            begin="0s"
            values="97; 0"
            dur="1s"
            calcMode="lienar"
            fill="freeze"
          ></animate>
        </path>
        <path d="M96 92L96 2" stroke="black" stroke-dasharray="90" stroke-dashoffset="90" stroke-width="0.73866">
          <animate
            id="p1"
            attributeName="stroke-dashoffset"
            begin="0.95s"
            values="90; 0"
            dur="1s"
            calcMode="lienar"
            fill="freeze"
          ></animate>
        </path>
        <path d="M76 92L76 2" stroke="black" stroke-dasharray="90" stroke-dashoffset="90" stroke-width="0.73866">
          <animate
            id="p1"
            attributeName="stroke-dashoffset"
            begin="0.65s"
            values="90; 0"
            dur="1s"
            calcMode="lienar"
            fill="freeze"
          ></animate>
        </path>
        <path d="M73 5.08823L99 5.08824" stroke-dasharray="27" stroke-dashoffset="27" stroke="black" stroke-width="0.73866">
          <animate
            id="p1"
            attributeName="stroke-dashoffset"
            begin="1.65s"
            values="27; 0"
            dur="0.3s"
            calcMode="lienar"
            fill="freeze"
          ></animate>
        </path>
        <path d="M79.52 43.159H77.4527V50.0615H79.1738V43.159Z" stroke-dasharray="18" stroke-dashoffset="18" fill="transparent" stroke="black" stroke-width="0.73866">
          <animate
            id="p1"
            attributeName="stroke-dashoffset"
            begin="1.1s"
            values="18; 0"
            dur="0.5s"
            calcMode="lienar"
            fill="freeze"
          ></animate>
        </path>
        <path d="M35 61.0882L79 61.0882" stroke-dasharray="45" stroke-dashoffset="45" stroke="black" stroke-width="0.73866">
          <animate
            id="p1"
            attributeName="stroke-dashoffset"
            begin="0.35s"
            values="45; 0"
            dur="1s"
            calcMode="lienar"
            fill="freeze"
          ></animate>
        </path>
        <path d="M38 58L38 92" stroke-dasharray="35" stroke-dashoffset="35" stroke="black" stroke-width="0.73866">
          <animate
            id="p1"
            attributeName="stroke-dashoffset"
            begin="0.35s"
            values="35; 0"
            dur="1s"
            calcMode="lienar"
            fill="freeze"
          ></animate>
        </path>
        <path  d="M57 58L57 92" stroke-dasharray="35" stroke-dashoffset="35" stroke="black" stroke-width="0.73866">
          <animate
            id="p1"
            attributeName="stroke-dashoffset"
            begin="0.5s"
            values="35; 0"
            dur="1s"
            calcMode="lienar"
            fill="freeze"
          ></animate>
        </path>
        <path d="M55.46 71.0968H53.3563V78.0812H55.0775V71.0968Z" stroke-dasharray="18" stroke-dashoffset="18" fill="transparent" stroke="black" stroke-width="0.73866">
          <animate
            id="p1"
            attributeName="stroke-dashoffset"
            begin="0.85s"
            values="18; 0"
            dur="1s"
            calcMode="lienar"
            fill="freeze"
          ></animate>
        </path>
        <path d="M60.6 71.0968H58.5198V78.0812H60.241V71.0968Z" stroke-dasharray="18" stroke-dashoffset="18" fill="transparent" stroke="black" stroke-width="0.73866">
          <animate
            id="p1"
            attributeName="stroke-dashoffset"
            begin="0.85s"
            values="18; 0"
            dur="1s"
            calcMode="lienar"
            fill="freeze"
          ></animate>
        </path>
        <path d="M13.804 33C12.5907 28.072 10.2013 24.88 6.636 23.424L4.928 25.02V33H2.24V12.7H4.928V22.388L13.188 12.7H17.164L8.232 21.744C12.656 23.8347 15.6613 27.5867 17.248 33H13.804Z" fill="#0B23EA"/>
        <path d="M21.272 22.518C21.9533 23.2553 22.294 24.1793 22.294 25.29C22.294 26.4007 21.9487 27.3433 21.258 28.118C20.5767 28.8927 19.7367 29.28 18.738 29.28C17.7393 29.28 16.9133 28.8927 16.26 28.118C15.6067 27.3433 15.28 26.4007 15.28 25.29C15.28 24.1793 15.6067 23.2553 16.26 22.518C16.9133 21.7807 17.744 21.412 18.752 21.412C19.7507 21.412 20.5907 21.7807 21.272 22.518ZM17.142 23.288C16.7593 23.8387 16.568 24.5013 16.568 25.276C16.568 26.0413 16.7547 26.7227 17.128 27.32C17.5107 27.9267 18.0333 28.23 18.696 28.23C19.3587 28.23 19.8907 27.9313 20.292 27.334C20.684 26.7273 20.88 26.0367 20.88 25.262C20.88 24.4873 20.684 23.8293 20.292 23.288C19.9 22.7373 19.3727 22.462 18.71 22.462C18.0473 22.462 17.5247 22.7373 17.142 23.288ZM29.4765 29.112C29.5699 28.9347 29.6165 28.6407 29.6165 28.23V23.75L27.6985 28.65H26.4665L24.6885 23.75V28.23C24.6885 28.51 24.7352 28.804 24.8285 29.112H23.2605C23.3539 28.804 23.4005 28.51 23.4005 28.23V21.44H24.8565L27.0545 27.334L29.5045 21.44H30.9605V28.23C30.9605 28.51 31.0072 28.804 31.1005 29.112H29.4765ZM32.6427 21.44H38.3827V29.042H37.0387V22.546H33.9867V29.042H32.6427V21.44ZM46.0166 21.86V29.042H44.6726V22.952H42.5866V24.324C42.5866 27.4973 41.5132 29.0887 39.3666 29.098V28.02C40.0572 28.02 40.5239 27.74 40.7666 27.18C41.0186 26.62 41.1446 25.668 41.1446 24.324V21.86H46.0166ZM53.5788 25.85H48.5528C48.6274 26.6247 48.8468 27.1707 49.2108 27.488C49.5841 27.8147 50.0834 27.978 50.7088 27.978C51.8194 27.978 52.7061 27.684 53.3688 27.096V28.44C52.6034 28.9253 51.7121 29.168 50.6948 29.168C49.6774 29.168 48.8561 28.8133 48.2308 28.104C47.5961 27.3853 47.2788 26.48 47.2788 25.388C47.2788 24.3053 47.6008 23.4 48.2448 22.672C48.8888 21.944 49.7148 21.58 50.7228 21.58C51.2734 21.58 51.7494 21.6873 52.1508 21.902C53.1028 22.4713 53.5788 23.7873 53.5788 25.85ZM50.7088 22.826H50.6808C49.4301 22.826 48.7208 23.4653 48.5528 24.744H52.4868C52.4401 24.0813 52.2861 23.596 52.0248 23.288C51.7541 22.98 51.3154 22.826 50.7088 22.826ZM56.3266 26.284V29H54.9826V21.86H56.3266V25.08L58.8046 21.86H60.5406L57.6706 24.996C59.1172 25.5373 60.1392 26.872 60.7366 29H59.1826C58.9119 27.2267 58.1466 26.1347 56.8866 25.724L56.3266 26.284ZM65.1919 22.532V29.042H63.8479V22.532H61.4259V21.44H67.6139V22.532H65.1919Z" fill="#0B23EA"/>
        <path d="M16.58 37.89V54.84H13.82V33H17.24L24.53 50.88L31.7 33H35.12V54.84H32.24V37.89L25.88 54H23.24L16.58 37.89Z" fill="#BF1010"/>
        <path d="M41.86 38.85H36.834C36.9087 39.6247 37.128 40.1707 37.492 40.488C37.8653 40.8147 38.3647 40.978 38.99 40.978C40.1007 40.978 40.9873 40.684 41.65 40.096V41.44C40.8847 41.9253 39.9933 42.168 38.976 42.168C37.9587 42.168 37.1373 41.8133 36.512 41.104C35.8773 40.3853 35.56 39.48 35.56 38.388C35.56 37.3053 35.882 36.4 36.526 35.672C37.17 34.944 37.996 34.58 39.004 34.58C39.5547 34.58 40.0307 34.6873 40.432 34.902C41.384 35.4713 41.86 36.7873 41.86 38.85ZM38.99 35.826H38.962C37.7113 35.826 37.002 36.4653 36.834 37.744H40.768C40.7213 37.0813 40.5673 36.596 40.306 36.288C40.0353 35.98 39.5967 35.826 38.99 35.826ZM46.1618 42.14C45.5458 42.14 44.9905 41.9627 44.4958 41.608C44.0012 41.2533 43.6278 40.726 43.3758 40.026C43.2078 39.5593 43.1238 39.0693 43.1238 38.556V37.03C43.1238 36.0313 43.3292 35.1587 43.7398 34.412C44.3278 33.3013 45.3825 32.5173 46.9038 32.06C47.5198 31.8733 48.1545 31.7567 48.8078 31.71V33.026C48.1732 33.026 47.4358 33.1707 46.5958 33.46C46.1105 33.628 45.6345 33.894 45.1678 34.258C44.7012 34.622 44.3372 35.4107 44.0758 36.624C44.5238 35.7467 45.2798 35.1867 46.3438 34.944C46.4652 34.916 46.6145 34.902 46.7918 34.902C46.9598 34.902 47.1698 34.9347 47.4218 35C47.9538 35.1867 48.3878 35.5413 48.7238 36.064C49.1905 36.792 49.4238 37.5293 49.4238 38.276C49.4238 39.7507 49.0458 40.7867 48.2898 41.384C47.7298 41.888 47.0252 42.14 46.1758 42.14H46.1618ZM44.7898 39.97C45.2005 40.7353 45.6765 41.1227 46.2178 41.132C46.9552 41.132 47.4918 40.7587 47.8278 40.012C48.0518 39.508 48.1638 38.9573 48.1638 38.36C48.1638 37.7533 48.0145 37.1933 47.7158 36.68C47.4078 36.176 46.9785 35.924 46.4278 35.924C45.8678 35.924 45.4012 36.148 45.0278 36.596C44.6545 37.0347 44.4632 37.6227 44.4538 38.36V38.57C44.4538 39.074 44.5658 39.5407 44.7898 39.97ZM56.9811 38.85H51.9551C52.0298 39.6247 52.2491 40.1707 52.6131 40.488C52.9864 40.8147 53.4858 40.978 54.1111 40.978C55.2218 40.978 56.1084 40.684 56.7711 40.096V41.44C56.0058 41.9253 55.1144 42.168 54.0971 42.168C53.0798 42.168 52.2584 41.8133 51.6331 41.104C50.9984 40.3853 50.6811 39.48 50.6811 38.388C50.6811 37.3053 51.0031 36.4 51.6471 35.672C52.2911 34.944 53.1171 34.58 54.1251 34.58C54.6758 34.58 55.1518 34.6873 55.5531 34.902C56.5051 35.4713 56.9811 36.7873 56.9811 38.85ZM54.1111 35.826H54.0831C52.8324 35.826 52.1231 36.4653 51.9551 37.744H55.8891C55.8424 37.0813 55.6884 36.596 55.4271 36.288C55.1564 35.98 54.7178 35.826 54.1111 35.826ZM64.3349 34.86V42.042H62.9909V35.952H60.9049V37.324C60.9049 40.4973 59.8316 42.0887 57.6849 42.098V41.02C58.3756 41.02 58.8423 40.74 59.0849 40.18C59.3369 39.62 59.4629 38.668 59.4629 37.324V34.86H64.3349ZM67.9351 36.932C70.1564 36.932 71.2671 37.7627 71.2671 39.424C71.2671 40.628 71.0011 41.3933 70.4691 41.72C69.9464 42.0467 69.0038 42.21 67.6411 42.21H65.8771V34.566H67.1091V36.932H67.9351ZM69.9511 39.536V39.452C69.9511 38.3787 69.2978 37.842 67.9911 37.842H67.1091V41.258H68.7191C69.5404 41.258 69.9511 40.684 69.9511 39.536Z" fill="#BF1010"/>
        </g>
        <defs>
        <clipPath id="clip0_1_2">
        <rect width="100" height="93.1765" fill="transparent"/>
        </clipPath>
        </defs>
      </svg>
