<svg width="142" height="80" viewBox="0 0 71 40" fill="none" xmlns="http://www.w3.org/2000/svg">
<g clip-path="url(#clip0_14_7)">
<path d="M11.804 20C10.5907 15.072 8.20133 11.88 4.636 10.424L2.928 12.02V20H0.24V-0.300001H2.928V9.388L11.188 -0.300001H15.164L6.232 8.744C10.656 10.8347 13.6613 14.5867 15.248 20H11.804Z" fill="#0B23EA"/>
<path d="M19.272 9.518C19.9533 10.2553 20.294 11.1793 20.294 12.29C20.294 13.4007 19.9487 14.3433 19.258 15.118C18.5767 15.8927 17.7367 16.28 16.738 16.28C15.7393 16.28 14.9133 15.8927 14.26 15.118C13.6067 14.3433 13.28 13.4007 13.28 12.29C13.28 11.1793 13.6067 10.2553 14.26 9.518C14.9133 8.78067 15.744 8.412 16.752 8.412C17.7507 8.412 18.5907 8.78067 19.272 9.518ZM15.142 10.288C14.7593 10.8387 14.568 11.5013 14.568 12.276C14.568 13.0413 14.7547 13.7227 15.128 14.32C15.5107 14.9267 16.0333 15.23 16.696 15.23C17.3587 15.23 17.8907 14.9313 18.292 14.334C18.684 13.7273 18.88 13.0367 18.88 12.262C18.88 11.4873 18.684 10.8293 18.292 10.288C17.9 9.73733 17.3727 9.462 16.71 9.462C16.0473 9.462 15.5247 9.73733 15.142 10.288ZM27.4765 16.112C27.5699 15.9347 27.6165 15.6407 27.6165 15.23V10.75L25.6985 15.65H24.4665L22.6885 10.75V15.23C22.6885 15.51 22.7352 15.804 22.8285 16.112H21.2605C21.3539 15.804 21.4005 15.51 21.4005 15.23V8.44H22.8565L25.0545 14.334L27.5045 8.44H28.9605V15.23C28.9605 15.51 29.0072 15.804 29.1005 16.112H27.4765ZM30.6427 8.44H36.3827V16.042H35.0387V9.546H31.9867V16.042H30.6427V8.44ZM44.0166 8.86V16.042H42.6726V9.952H40.5866V11.324C40.5866 14.4973 39.5132 16.0887 37.3666 16.098V15.02C38.0572 15.02 38.5239 14.74 38.7666 14.18C39.0186 13.62 39.1446 12.668 39.1446 11.324V8.86H44.0166ZM51.5788 12.85H46.5528C46.6274 13.6247 46.8468 14.1707 47.2108 14.488C47.5841 14.8147 48.0834 14.978 48.7088 14.978C49.8194 14.978 50.7061 14.684 51.3688 14.096V15.44C50.6034 15.9253 49.7121 16.168 48.6948 16.168C47.6774 16.168 46.8561 15.8133 46.2308 15.104C45.5961 14.3853 45.2788 13.48 45.2788 12.388C45.2788 11.3053 45.6008 10.4 46.2448 9.672C46.8888 8.944 47.7148 8.58 48.7228 8.58C49.2734 8.58 49.7494 8.68733 50.1508 8.902C51.1028 9.47133 51.5788 10.7873 51.5788 12.85ZM48.7088 9.826H48.6808C47.4301 9.826 46.7208 10.4653 46.5528 11.744H50.4868C50.4401 11.0813 50.2861 10.596 50.0248 10.288C49.7541 9.98 49.3154 9.826 48.7088 9.826ZM54.3266 13.284V16H52.9826V8.86H54.3266V12.08L56.8046 8.86H58.5406L55.6706 11.996C57.1172 12.5373 58.1392 13.872 58.7366 16H57.1826C56.9119 14.2267 56.1466 13.1347 54.8866 12.724L54.3266 13.284ZM63.1919 9.532V16.042H61.8479V9.532H59.4259V8.44H65.6139V9.532H63.1919Z" fill="#0B23EA"/>
<path d="M14.636 24.564V40.384H12.06V20H15.252L22.056 36.688L28.748 20H31.94V40.384H29.252V24.564L23.316 39.6H20.852L14.636 24.564Z" fill="#BF1010"/>
<path d="M39.86 25.85H34.834C34.9087 26.6247 35.128 27.1707 35.492 27.488C35.8653 27.8147 36.3647 27.978 36.99 27.978C38.1007 27.978 38.9873 27.684 39.65 27.096V28.44C38.8847 28.9253 37.9933 29.168 36.976 29.168C35.9587 29.168 35.1373 28.8133 34.512 28.104C33.8773 27.3853 33.56 26.48 33.56 25.388C33.56 24.3053 33.882 23.4 34.526 22.672C35.17 21.944 35.996 21.58 37.004 21.58C37.5547 21.58 38.0307 21.6873 38.432 21.902C39.384 22.4713 39.86 23.7873 39.86 25.85ZM36.99 22.826H36.962C35.7113 22.826 35.002 23.4653 34.834 24.744H38.768C38.7213 24.0813 38.5673 23.596 38.306 23.288C38.0353 22.98 37.5967 22.826 36.99 22.826ZM44.1618 29.14C43.5458 29.14 42.9905 28.9627 42.4958 28.608C42.0012 28.2533 41.6278 27.726 41.3758 27.026C41.2078 26.5593 41.1238 26.0693 41.1238 25.556V24.03C41.1238 23.0313 41.3292 22.1587 41.7398 21.412C42.3278 20.3013 43.3825 19.5173 44.9038 19.06C45.5198 18.8733 46.1545 18.7567 46.8078 18.71V20.026C46.1732 20.026 45.4358 20.1707 44.5958 20.46C44.1105 20.628 43.6345 20.894 43.1678 21.258C42.7012 21.622 42.3372 22.4107 42.0758 23.624C42.5238 22.7467 43.2798 22.1867 44.3438 21.944C44.4652 21.916 44.6145 21.902 44.7918 21.902C44.9598 21.902 45.1698 21.9347 45.4218 22C45.9538 22.1867 46.3878 22.5413 46.7238 23.064C47.1905 23.792 47.4238 24.5293 47.4238 25.276C47.4238 26.7507 47.0458 27.7867 46.2898 28.384C45.7298 28.888 45.0252 29.14 44.1758 29.14H44.1618ZM42.7898 26.97C43.2005 27.7353 43.6765 28.1227 44.2178 28.132C44.9552 28.132 45.4918 27.7587 45.8278 27.012C46.0518 26.508 46.1638 25.9573 46.1638 25.36C46.1638 24.7533 46.0145 24.1933 45.7158 23.68C45.4078 23.176 44.9785 22.924 44.4278 22.924C43.8678 22.924 43.4012 23.148 43.0278 23.596C42.6545 24.0347 42.4632 24.6227 42.4538 25.36V25.57C42.4538 26.074 42.5658 26.5407 42.7898 26.97ZM54.9811 25.85H49.9551C50.0298 26.6247 50.2491 27.1707 50.6131 27.488C50.9864 27.8147 51.4858 27.978 52.1111 27.978C53.2218 27.978 54.1084 27.684 54.7711 27.096V28.44C54.0058 28.9253 53.1144 29.168 52.0971 29.168C51.0798 29.168 50.2584 28.8133 49.6331 28.104C48.9984 27.3853 48.6811 26.48 48.6811 25.388C48.6811 24.3053 49.0031 23.4 49.6471 22.672C50.2911 21.944 51.1171 21.58 52.1251 21.58C52.6758 21.58 53.1518 21.6873 53.5531 21.902C54.5051 22.4713 54.9811 23.7873 54.9811 25.85ZM52.1111 22.826H52.0831C50.8324 22.826 50.1231 23.4653 49.9551 24.744H53.8891C53.8424 24.0813 53.6884 23.596 53.4271 23.288C53.1564 22.98 52.7178 22.826 52.1111 22.826ZM62.3349 21.86V29.042H60.9909V22.952H58.9049V24.324C58.9049 27.4973 57.8316 29.0887 55.6849 29.098V28.02C56.3756 28.02 56.8423 27.74 57.0849 27.18C57.3369 26.62 57.4629 25.668 57.4629 24.324V21.86H62.3349ZM65.9351 23.932C68.1564 23.932 69.2671 24.7627 69.2671 26.424C69.2671 27.628 69.0011 28.3933 68.4691 28.72C67.9464 29.0467 67.0038 29.21 65.6411 29.21H63.8771V21.566H65.1091V23.932H65.9351ZM67.9511 26.536V26.452C67.9511 25.3787 67.2978 24.842 65.9911 24.842H65.1091V28.258H66.7191C67.5404 28.258 67.9511 27.684 67.9511 26.536Z" fill="#BF1010"/>
</g>
<defs>
<clipPath id="clip0_14_7">
<rect width="71" height="40" fill="white"/>
</clipPath>
</defs>
</svg>
