<svg width="142" height="74" viewBox="0 0 71 37" fill="none" xmlns="http://www.w3.org/2000/svg">
<path d="M12.0588 20.5L5 11.0749H2.47326V20.5H-0.0133688V-0.0347601H2.47326V8.86898H3.55615L11.7781 -0.0347601H14.746L6.44385 8.9893L15.0267 20.5H12.0588Z" fill="#0B23EA"/>
<path d="M16.6136 13.6591C15.9242 13.6591 15.3194 13.495 14.799 13.1669C14.282 12.8388 13.8776 12.3797 13.5859 11.7898C13.2976 11.1998 13.1534 10.5104 13.1534 9.72159C13.1534 8.92614 13.2976 8.23177 13.5859 7.63849C13.8776 7.04522 14.282 6.58452 14.799 6.25639C15.3194 5.92827 15.9242 5.7642 16.6136 5.7642C17.303 5.7642 17.9063 5.92827 18.4233 6.25639C18.9437 6.58452 19.348 7.04522 19.6364 7.63849C19.928 8.23177 20.0739 8.92614 20.0739 9.72159C20.0739 10.5104 19.928 11.1998 19.6364 11.7898C19.348 12.3797 18.9437 12.8388 18.4233 13.1669C17.9063 13.495 17.303 13.6591 16.6136 13.6591ZM16.6136 12.6051C17.1373 12.6051 17.5682 12.4709 17.9062 12.2024C18.2443 11.9339 18.4946 11.581 18.657 11.1435C18.8194 10.706 18.9006 10.232 18.9006 9.72159C18.9006 9.21117 18.8194 8.73556 18.657 8.29474C18.4946 7.85393 18.2443 7.49763 17.9062 7.22585C17.5682 6.95407 17.1373 6.81818 16.6136 6.81818C16.09 6.81818 15.6591 6.95407 15.321 7.22585C14.983 7.49763 14.7327 7.85393 14.5703 8.29474C14.4079 8.73556 14.3267 9.21117 14.3267 9.72159C14.3267 10.232 14.4079 10.706 14.5703 11.1435C14.7327 11.581 14.983 11.9339 15.321 12.2024C15.6591 12.4709 16.09 12.6051 16.6136 12.6051ZM26.041 11.9091L28.7058 5.86364H29.8194L26.5183 13.5H25.5637L22.3223 5.86364H23.416L26.041 11.9091ZM23.0382 5.86364V13.5H21.8649V5.86364H23.0382ZM29.0439 13.5V5.86364H30.2172V13.5H29.0439ZM32.3649 13.5V5.86364H38.3706V13.5H37.1973V6.95739H33.5382V13.5H32.3649ZM39.8372 13.5V12.4062H40.1156C40.3443 12.4062 40.5349 12.3615 40.6873 12.272C40.8398 12.1792 40.9624 12.0185 41.0552 11.7898C41.1513 11.5578 41.2243 11.2363 41.274 10.8253C41.327 10.411 41.3651 9.884 41.3883 9.24432L41.5275 5.86364H46.6184V13.5H45.4451V6.95739H42.6412L42.5218 9.68182C42.4953 10.3082 42.439 10.8601 42.3528 11.3374C42.2699 11.8113 42.1423 12.209 41.97 12.5305C41.801 12.852 41.5756 13.094 41.2939 13.2564C41.0121 13.4188 40.6592 13.5 40.2349 13.5H39.8372ZM51.9728 13.6591C51.237 13.6591 50.6023 13.4967 50.0687 13.1719C49.5384 12.8438 49.1291 12.3864 48.8407 11.7997C48.5557 11.2098 48.4132 10.5237 48.4132 9.74148C48.4132 8.95928 48.5557 8.26989 48.8407 7.6733C49.1291 7.07339 49.5301 6.60606 50.0439 6.27131C50.5609 5.93324 51.1641 5.7642 51.8535 5.7642C52.2512 5.7642 52.644 5.83049 53.0318 5.96307C53.4196 6.09564 53.7726 6.31108 54.0907 6.60938C54.4089 6.90436 54.6625 7.29545 54.8514 7.78267C55.0403 8.26989 55.1348 8.86979 55.1348 9.58239V10.0795H49.2484V9.06534H53.9416C53.9416 8.63447 53.8554 8.25 53.6831 7.91193C53.514 7.57386 53.2721 7.30705 52.9572 7.11151C52.6457 6.91596 52.2778 6.81818 51.8535 6.81818C51.3862 6.81818 50.9818 6.93419 50.6404 7.16619C50.3024 7.39489 50.0422 7.69318 49.8599 8.06108C49.6776 8.42898 49.5865 8.82339 49.5865 9.24432V9.92045C49.5865 10.4972 49.6859 10.986 49.8848 11.3871C50.0869 11.7848 50.367 12.0881 50.725 12.2969C51.0829 12.5024 51.4989 12.6051 51.9728 12.6051C52.2811 12.6051 52.5595 12.562 52.8081 12.4759C53.06 12.3864 53.277 12.2538 53.4593 12.0781C53.6416 11.8991 53.7825 11.6771 53.8819 11.4119L55.0154 11.7301C54.8961 12.1146 54.6956 12.4527 54.4139 12.7443C54.1322 13.0327 53.7842 13.258 53.3699 13.4205C52.9556 13.5795 52.4899 13.6591 51.9728 13.6591ZM56.9196 13.5V5.86364H58.0929V9.18466H58.8684L61.6127 5.86364H63.1241L60.0417 9.54261L63.1639 13.5H61.6525L59.1468 10.2784H58.0929V13.5H56.9196ZM64.0016 6.95739V5.86364H70.2061V6.95739H67.7005V13.5H66.5272V6.95739H64.0016Z" fill="#0B23EA"/>
<path d="M5.35618 17.0909H8.1614L14.7575 33.202H14.9849L21.581 17.0909H24.3862V36.5H22.1875V21.7536H21.998L15.9326 36.5H13.8097L7.7444 21.7536H7.55486V36.5H5.35618V17.0909Z" fill="#BF1010"/>
<path d="M30.7131 30.6591C29.9773 30.6591 29.3426 30.4967 28.8089 30.1719C28.2786 29.8438 27.8693 29.3864 27.581 28.7997C27.2959 28.2098 27.1534 27.5237 27.1534 26.7415C27.1534 25.9593 27.2959 25.2699 27.581 24.6733C27.8693 24.0734 28.2704 23.6061 28.7841 23.2713C29.3011 22.9332 29.9044 22.7642 30.5938 22.7642C30.9915 22.7642 31.3842 22.8305 31.772 22.9631C32.1598 23.0956 32.5128 23.3111 32.831 23.6094C33.1491 23.9044 33.4027 24.2955 33.5916 24.7827C33.7805 25.2699 33.875 25.8698 33.875 26.5824V27.0795H27.9886V26.0653H32.6818C32.6818 25.6345 32.5956 25.25 32.4233 24.9119C32.2543 24.5739 32.0123 24.3071 31.6974 24.1115C31.3859 23.916 31.018 23.8182 30.5938 23.8182C30.1264 23.8182 29.7221 23.9342 29.3807 24.1662C29.0426 24.3949 28.7824 24.6932 28.6001 25.0611C28.4179 25.429 28.3267 25.8234 28.3267 26.2443V26.9205C28.3267 27.4972 28.4261 27.986 28.625 28.3871C28.8272 28.7848 29.1072 29.0881 29.4652 29.2969C29.8232 29.5024 30.2391 29.6051 30.7131 29.6051C31.0213 29.6051 31.2997 29.562 31.5483 29.4759C31.8002 29.3864 32.0173 29.2538 32.1996 29.0781C32.3819 28.8991 32.5227 28.6771 32.6222 28.4119L33.7557 28.7301C33.6364 29.1146 33.4358 29.4527 33.1541 29.7443C32.8724 30.0327 32.5244 30.258 32.1101 30.4205C31.6958 30.5795 31.2301 30.6591 30.7131 30.6591ZM41.3274 20L41.924 20.7159C41.692 20.9413 41.4235 21.0987 41.1186 21.1882C40.8137 21.2777 40.469 21.3324 40.0845 21.3523C39.7 21.3722 39.2725 21.392 38.8018 21.4119C38.2715 21.4318 37.8324 21.5611 37.4844 21.7997C37.1364 22.0384 36.8679 22.383 36.679 22.8338C36.4901 23.2846 36.3691 23.8381 36.3161 24.4943H36.4155C36.674 24.017 37.032 23.6657 37.4893 23.4403C37.9467 23.215 38.4373 23.1023 38.9609 23.1023C39.5575 23.1023 40.0945 23.2415 40.5717 23.5199C41.049 23.7983 41.4268 24.2109 41.7053 24.7578C41.9837 25.3047 42.1229 25.9792 42.1229 26.7812C42.1229 27.58 41.9804 28.2694 41.6953 28.8494C41.4136 29.4295 41.0175 29.8769 40.5071 30.1918C40 30.5033 39.4051 30.6591 38.7223 30.6591C38.0395 30.6591 37.4413 30.4983 36.9276 30.1768C36.4138 29.852 36.0144 29.3714 35.7294 28.7351C35.4444 28.0954 35.3018 27.3049 35.3018 26.3636V25.5483C35.3018 23.848 35.5902 22.5587 36.1669 21.6804C36.7469 20.8021 37.6186 20.348 38.782 20.3182C39.1929 20.3049 39.5592 20.3016 39.8807 20.3082C40.2022 20.3149 40.4822 20.3 40.7209 20.2635C40.9595 20.227 41.1617 20.1392 41.3274 20ZM38.7223 29.6051C39.183 29.6051 39.5791 29.4891 39.9105 29.2571C40.2453 29.0251 40.5021 28.6986 40.6811 28.2777C40.8601 27.8535 40.9496 27.3546 40.9496 26.7812C40.9496 26.2244 40.8584 25.7505 40.6761 25.3594C40.4972 24.9683 40.2403 24.67 39.9055 24.4645C39.5708 24.259 39.1697 24.1562 38.7024 24.1562C38.361 24.1562 38.0545 24.2143 37.7827 24.3303C37.5109 24.4463 37.2789 24.617 37.0866 24.8423C36.8944 25.0677 36.7453 25.3428 36.6392 25.6676C36.5365 25.9924 36.4818 26.3636 36.4751 26.7812C36.4751 27.6364 36.6757 28.3208 37.0767 28.8345C37.4777 29.3482 38.0263 29.6051 38.7223 29.6051ZM47.1193 30.6591C46.3835 30.6591 45.7488 30.4967 45.2152 30.1719C44.6849 29.8438 44.2756 29.3864 43.9872 28.7997C43.7022 28.2098 43.5597 27.5237 43.5597 26.7415C43.5597 25.9593 43.7022 25.2699 43.9872 24.6733C44.2756 24.0734 44.6766 23.6061 45.1903 23.2713C45.7074 22.9332 46.3106 22.7642 47 22.7642C47.3977 22.7642 47.7905 22.8305 48.1783 22.9631C48.5661 23.0956 48.919 23.3111 49.2372 23.6094C49.5554 23.9044 49.8089 24.2955 49.9979 24.7827C50.1868 25.2699 50.2812 25.8698 50.2812 26.5824V27.0795H44.3949V26.0653H49.0881C49.0881 25.6345 49.0019 25.25 48.8295 24.9119C48.6605 24.5739 48.4186 24.3071 48.1037 24.1115C47.7921 23.916 47.4242 23.8182 47 23.8182C46.5327 23.8182 46.1283 23.9342 45.7869 24.1662C45.4489 24.3949 45.1887 24.6932 45.0064 25.0611C44.8241 25.429 44.733 25.8234 44.733 26.2443V26.9205C44.733 27.4972 44.8324 27.986 45.0312 28.3871C45.2334 28.7848 45.5135 29.0881 45.8714 29.2969C46.2294 29.5024 46.6454 29.6051 47.1193 29.6051C47.4276 29.6051 47.706 29.562 47.9545 29.4759C48.2064 29.3864 48.4235 29.2538 48.6058 29.0781C48.7881 28.8991 48.929 28.6771 49.0284 28.4119L50.1619 28.7301C50.0426 29.1146 49.8421 29.4527 49.5604 29.7443C49.2786 30.0327 48.9306 30.258 48.5163 30.4205C48.102 30.5795 47.6364 30.6591 47.1193 30.6591ZM51.3899 30.5V29.4062H51.6683C51.897 29.4062 52.0876 29.3615 52.2401 29.272C52.3925 29.1792 52.5152 29.0185 52.608 28.7898C52.7041 28.5578 52.777 28.2363 52.8267 27.8253C52.8797 27.411 52.9179 26.884 52.9411 26.2443L53.0803 22.8636H58.1712V30.5H56.9979V23.9574H54.1939L54.0746 26.6818C54.0481 27.3082 53.9917 27.8601 53.9055 28.3374C53.8227 28.8113 53.6951 29.209 53.5227 29.5305C53.3537 29.852 53.1283 30.094 52.8466 30.2564C52.5649 30.4188 52.2119 30.5 51.7876 30.5H51.3899ZM61.3381 25.6278H63.5256C64.4205 25.6278 65.1049 25.8549 65.5788 26.3089C66.0528 26.763 66.2898 27.3381 66.2898 28.0341C66.2898 28.4915 66.1837 28.9074 65.9716 29.282C65.7595 29.6532 65.4479 29.9498 65.0369 30.1719C64.6259 30.3906 64.1222 30.5 63.5256 30.5H60.3239V22.8636H61.4972V29.4062H63.5256C63.9896 29.4062 64.3707 29.2836 64.669 29.0384C64.9673 28.7931 65.1165 28.4782 65.1165 28.0938C65.1165 27.6894 64.9673 27.3596 64.669 27.1044C64.3707 26.8492 63.9896 26.7216 63.5256 26.7216H61.3381V25.6278Z" fill="#BF1010"/>
</svg>
