<svg width="100" height="94" viewBox="0 0 100 94" fill="none" xmlns="http://www.w3.org/2000/svg">
        <g clip-path="url(#clip0_1_2)">
        <path d="M363.125 0H-0.625V374.569H363.125V0Z" fill="transparent"/>
        <path d="M2 89L99 89" stroke="black" stroke-dasharray="97" stroke-dashoffset="0" stroke-width="0.73866">
          <animate
            id="p1"
            attributeName="stroke-dashoffset"
            begin="0s"
            values="97; 0"
            dur="1s"
            calcMode="lienar"
            fill="freeze"
          ></animate>
        </path>
        <path d="M96 92L96 2" stroke="black" stroke-dasharray="90" stroke-dashoffset="90" stroke-width="0.73866">
          <animate
            id="p1"
            attributeName="stroke-dashoffset"
            begin="0.95s"
            values="90; 0"
            dur="1s"
            calcMode="lienar"
            fill="freeze"
          ></animate>
        </path>
        <path d="M76 92L76 2" stroke="black" stroke-dasharray="90" stroke-dashoffset="90" stroke-width="0.73866">
          <animate
            id="p1"
            attributeName="stroke-dashoffset"
            begin="0.65s"
            values="90; 0"
            dur="1s"
            calcMode="lienar"
            fill="freeze"
          ></animate>
        </path>
        <path d="M73 5.08823L99 5.08824" stroke-dasharray="27" stroke-dashoffset="27" stroke="black" stroke-width="0.73866">
          <animate
            id="p1"
            attributeName="stroke-dashoffset"
            begin="1.65s"
            values="27; 0"
            dur="0.3s"
            calcMode="lienar"
            fill="freeze"
          ></animate>
        </path>
        <path d="M79.52 43.159H77.4527V50.0615H79.1738V43.159Z" stroke-dasharray="18" stroke-dashoffset="18" fill="transparent" stroke="black" stroke-width="0.73866">
          <animate
            id="p1"
            attributeName="stroke-dashoffset"
            begin="1.1s"
            values="18; 0"
            dur="0.5s"
            calcMode="lienar"
            fill="freeze"
          ></animate>
        </path>
        <path d="M35 61.0882L79 61.0882" stroke-dasharray="45" stroke-dashoffset="45" stroke="black" stroke-width="0.73866">
          <animate
            id="p1"
            attributeName="stroke-dashoffset"
            begin="0.35s"
            values="45; 0"
            dur="1s"
            calcMode="lienar"
            fill="freeze"
          ></animate>
        </path>
        <path d="M38 58L38 92" stroke-dasharray="35" stroke-dashoffset="35" stroke="black" stroke-width="0.73866">
          <animate
            id="p1"
            attributeName="stroke-dashoffset"
            begin="0.35s"
            values="35; 0"
            dur="1s"
            calcMode="lienar"
            fill="freeze"
          ></animate>
        </path>
        <path  d="M57 58L57 92" stroke-dasharray="35" stroke-dashoffset="35" stroke="black" stroke-width="0.73866">
          <animate
            id="p1"
            attributeName="stroke-dashoffset"
            begin="0.5s"
            values="35; 0"
            dur="1s"
            calcMode="lienar"
            fill="freeze"
          ></animate>
        </path>
        <path d="M55.46 71.0968H53.3563V78.0812H55.0775V71.0968Z" stroke-dasharray="18" stroke-dashoffset="18" fill="transparent" stroke="black" stroke-width="0.73866">
          <animate
            id="p1"
            attributeName="stroke-dashoffset"
            begin="0.85s"
            values="18; 0"
            dur="1s"
            calcMode="lienar"
            fill="freeze"
          ></animate>
        </path>
        <path d="M60.6 71.0968H58.5198V78.0812H60.241V71.0968Z" stroke-dasharray="18" stroke-dashoffset="18" fill="transparent" stroke="black" stroke-width="0.73866">
          <animate
            id="p1"
            attributeName="stroke-dashoffset"
            begin="0.85s"
            values="18; 0"
            dur="1s"
            calcMode="lienar"
            fill="freeze"
          ></animate>
        </path>
        <path d="M15.5588 38L8.5 28.5749H5.97326V38H3.48663V17.4652H5.97326V26.369H7.05615L15.2781 17.4652H18.246L9.94385 26.4893L18.5267 38H15.5588Z" fill="#0B23EA"/>
        <path d="M20.1136 31.1591C19.4242 31.1591 18.8194 30.995 18.299 30.6669C17.782 30.3388 17.3776 29.8797 17.0859 29.2898C16.7976 28.6998 16.6534 28.0104 16.6534 27.2216C16.6534 26.4261 16.7976 25.7318 17.0859 25.1385C17.3776 24.5452 17.782 24.0845 18.299 23.7564C18.8194 23.4283 19.4242 23.2642 20.1136 23.2642C20.803 23.2642 21.4063 23.4283 21.9233 23.7564C22.4437 24.0845 22.848 24.5452 23.1364 25.1385C23.428 25.7318 23.5739 26.4261 23.5739 27.2216C23.5739 28.0104 23.428 28.6998 23.1364 29.2898C22.848 29.8797 22.4437 30.3388 21.9233 30.6669C21.4063 30.995 20.803 31.1591 20.1136 31.1591ZM20.1136 30.1051C20.6373 30.1051 21.0682 29.9709 21.4062 29.7024C21.7443 29.4339 21.9946 29.081 22.157 28.6435C22.3194 28.206 22.4006 27.732 22.4006 27.2216C22.4006 26.7112 22.3194 26.2356 22.157 25.7947C21.9946 25.3539 21.7443 24.9976 21.4062 24.7259C21.0682 24.4541 20.6373 24.3182 20.1136 24.3182C19.59 24.3182 19.1591 24.4541 18.821 24.7259C18.483 24.9976 18.2327 25.3539 18.0703 25.7947C17.9079 26.2356 17.8267 26.7112 17.8267 27.2216C17.8267 27.732 17.9079 28.206 18.0703 28.6435C18.2327 29.081 18.483 29.4339 18.821 29.7024C19.1591 29.9709 19.59 30.1051 20.1136 30.1051ZM29.541 29.4091L32.2058 23.3636H33.3194L30.0183 31H29.0637L25.8223 23.3636H26.916L29.541 29.4091ZM26.5382 23.3636V31H25.3649V23.3636H26.5382ZM32.5439 31V23.3636H33.7172V31H32.5439ZM35.8649 31V23.3636H41.8706V31H40.6973V24.4574H37.0382V31H35.8649ZM43.3372 31V29.9062H43.6156C43.8443 29.9062 44.0349 29.8615 44.1873 29.772C44.3398 29.6792 44.4624 29.5185 44.5552 29.2898C44.6513 29.0578 44.7243 28.7363 44.774 28.3253C44.827 27.911 44.8651 27.384 44.8883 26.7443L45.0275 23.3636H50.1184V31H48.9451V24.4574H46.1412L46.0218 27.1818C45.9953 27.8082 45.939 28.3601 45.8528 28.8374C45.7699 29.3113 45.6423 29.709 45.47 30.0305C45.301 30.352 45.0756 30.594 44.7939 30.7564C44.5121 30.9188 44.1592 31 43.7349 31H43.3372ZM55.4728 31.1591C54.737 31.1591 54.1023 30.9967 53.5687 30.6719C53.0384 30.3438 52.6291 29.8864 52.3407 29.2997C52.0557 28.7098 51.9132 28.0237 51.9132 27.2415C51.9132 26.4593 52.0557 25.7699 52.3407 25.1733C52.6291 24.5734 53.0301 24.1061 53.5439 23.7713C54.0609 23.4332 54.6641 23.2642 55.3535 23.2642C55.7512 23.2642 56.144 23.3305 56.5318 23.4631C56.9196 23.5956 57.2726 23.8111 57.5907 24.1094C57.9089 24.4044 58.1625 24.7955 58.3514 25.2827C58.5403 25.7699 58.6348 26.3698 58.6348 27.0824V27.5795H52.7484V26.5653H57.4416C57.4416 26.1345 57.3554 25.75 57.1831 25.4119C57.014 25.0739 56.7721 24.8071 56.4572 24.6115C56.1457 24.416 55.7778 24.3182 55.3535 24.3182C54.8862 24.3182 54.4818 24.4342 54.1404 24.6662C53.8024 24.8949 53.5422 25.1932 53.3599 25.5611C53.1776 25.929 53.0865 26.3234 53.0865 26.7443V27.4205C53.0865 27.9972 53.1859 28.486 53.3848 28.8871C53.5869 29.2848 53.867 29.5881 54.225 29.7969C54.5829 30.0024 54.9989 30.1051 55.4728 30.1051C55.7811 30.1051 56.0595 30.062 56.3081 29.9759C56.56 29.8864 56.777 29.7538 56.9593 29.5781C57.1416 29.3991 57.2825 29.1771 57.3819 28.9119L58.5154 29.2301C58.3961 29.6146 58.1956 29.9527 57.9139 30.2443C57.6322 30.5327 57.2842 30.758 56.8699 30.9205C56.4556 31.0795 55.9899 31.1591 55.4728 31.1591ZM60.4196 31V23.3636H61.5929V26.6847H62.3684L65.1127 23.3636H66.6241L63.5417 27.0426L66.6639 31H65.1525L62.6468 27.7784H61.5929V31H60.4196ZM67.5016 24.4574V23.3636H73.7061V24.4574H71.2005V31H70.0272V24.4574H67.5016Z" fill="#0B23EA"/>
        <path d="M8.85618 34.5909H11.6614L18.2575 50.702H18.4849L25.081 34.5909H27.8862V54H25.6875V39.2536H25.498L19.4326 54H17.3097L11.2444 39.2536H11.0549V54H8.85618V34.5909Z" fill="#BF1010"/>
        <path d="M34.2131 48.1591C33.4773 48.1591 32.8426 47.9967 32.3089 47.6719C31.7786 47.3438 31.3693 46.8864 31.081 46.2997C30.7959 45.7098 30.6534 45.0237 30.6534 44.2415C30.6534 43.4593 30.7959 42.7699 31.081 42.1733C31.3693 41.5734 31.7704 41.1061 32.2841 40.7713C32.8011 40.4332 33.4044 40.2642 34.0938 40.2642C34.4915 40.2642 34.8842 40.3305 35.272 40.4631C35.6598 40.5956 36.0128 40.8111 36.331 41.1094C36.6491 41.4044 36.9027 41.7955 37.0916 42.2827C37.2805 42.7699 37.375 43.3698 37.375 44.0824V44.5795H31.4886V43.5653H36.1818C36.1818 43.1345 36.0956 42.75 35.9233 42.4119C35.7543 42.0739 35.5123 41.8071 35.1974 41.6115C34.8859 41.416 34.518 41.3182 34.0938 41.3182C33.6264 41.3182 33.2221 41.4342 32.8807 41.6662C32.5426 41.8949 32.2824 42.1932 32.1001 42.5611C31.9179 42.929 31.8267 43.3234 31.8267 43.7443V44.4205C31.8267 44.9972 31.9261 45.486 32.125 45.8871C32.3272 46.2848 32.6072 46.5881 32.9652 46.7969C33.3232 47.0024 33.7391 47.1051 34.2131 47.1051C34.5213 47.1051 34.7997 47.062 35.0483 46.9759C35.3002 46.8864 35.5173 46.7538 35.6996 46.5781C35.8819 46.3991 36.0227 46.1771 36.1222 45.9119L37.2557 46.2301C37.1364 46.6146 36.9358 46.9527 36.6541 47.2443C36.3724 47.5327 36.0244 47.758 35.6101 47.9205C35.1958 48.0795 34.7301 48.1591 34.2131 48.1591ZM44.8274 37.5L45.424 38.2159C45.192 38.4413 44.9235 38.5987 44.6186 38.6882C44.3137 38.7777 43.969 38.8324 43.5845 38.8523C43.2 38.8722 42.7725 38.892 42.3018 38.9119C41.7715 38.9318 41.3324 39.0611 40.9844 39.2997C40.6364 39.5384 40.3679 39.883 40.179 40.3338C39.9901 40.7846 39.8691 41.3381 39.8161 41.9943H39.9155C40.174 41.517 40.532 41.1657 40.9893 40.9403C41.4467 40.715 41.9373 40.6023 42.4609 40.6023C43.0575 40.6023 43.5945 40.7415 44.0717 41.0199C44.549 41.2983 44.9268 41.7109 45.2053 42.2578C45.4837 42.8047 45.6229 43.4792 45.6229 44.2812C45.6229 45.08 45.4804 45.7694 45.1953 46.3494C44.9136 46.9295 44.5175 47.3769 44.0071 47.6918C43.5 48.0033 42.9051 48.1591 42.2223 48.1591C41.5395 48.1591 40.9413 47.9983 40.4276 47.6768C39.9138 47.352 39.5144 46.8714 39.2294 46.2351C38.9444 45.5954 38.8018 44.8049 38.8018 43.8636V43.0483C38.8018 41.348 39.0902 40.0587 39.6669 39.1804C40.2469 38.3021 41.1186 37.848 42.282 37.8182C42.6929 37.8049 43.0592 37.8016 43.3807 37.8082C43.7022 37.8149 43.9822 37.8 44.2209 37.7635C44.4595 37.727 44.6617 37.6392 44.8274 37.5ZM42.2223 47.1051C42.683 47.1051 43.0791 46.9891 43.4105 46.7571C43.7453 46.5251 44.0021 46.1986 44.1811 45.7777C44.3601 45.3535 44.4496 44.8546 44.4496 44.2812C44.4496 43.7244 44.3584 43.2505 44.1761 42.8594C43.9972 42.4683 43.7403 42.17 43.4055 41.9645C43.0708 41.759 42.6697 41.6562 42.2024 41.6562C41.861 41.6562 41.5545 41.7143 41.2827 41.8303C41.0109 41.9463 40.7789 42.117 40.5866 42.3423C40.3944 42.5677 40.2453 42.8428 40.1392 43.1676C40.0365 43.4924 39.9818 43.8636 39.9751 44.2812C39.9751 45.1364 40.1757 45.8208 40.5767 46.3345C40.9777 46.8482 41.5263 47.1051 42.2223 47.1051ZM50.6193 48.1591C49.8835 48.1591 49.2488 47.9967 48.7152 47.6719C48.1849 47.3438 47.7756 46.8864 47.4872 46.2997C47.2022 45.7098 47.0597 45.0237 47.0597 44.2415C47.0597 43.4593 47.2022 42.7699 47.4872 42.1733C47.7756 41.5734 48.1766 41.1061 48.6903 40.7713C49.2074 40.4332 49.8106 40.2642 50.5 40.2642C50.8977 40.2642 51.2905 40.3305 51.6783 40.4631C52.0661 40.5956 52.419 40.8111 52.7372 41.1094C53.0554 41.4044 53.3089 41.7955 53.4979 42.2827C53.6868 42.7699 53.7812 43.3698 53.7812 44.0824V44.5795H47.8949V43.5653H52.5881C52.5881 43.1345 52.5019 42.75 52.3295 42.4119C52.1605 42.0739 51.9186 41.8071 51.6037 41.6115C51.2921 41.416 50.9242 41.3182 50.5 41.3182C50.0327 41.3182 49.6283 41.4342 49.2869 41.6662C48.9489 41.8949 48.6887 42.1932 48.5064 42.5611C48.3241 42.929 48.233 43.3234 48.233 43.7443V44.4205C48.233 44.9972 48.3324 45.486 48.5312 45.8871C48.7334 46.2848 49.0135 46.5881 49.3714 46.7969C49.7294 47.0024 50.1454 47.1051 50.6193 47.1051C50.9276 47.1051 51.206 47.062 51.4545 46.9759C51.7064 46.8864 51.9235 46.7538 52.1058 46.5781C52.2881 46.3991 52.429 46.1771 52.5284 45.9119L53.6619 46.2301C53.5426 46.6146 53.3421 46.9527 53.0604 47.2443C52.7786 47.5327 52.4306 47.758 52.0163 47.9205C51.602 48.0795 51.1364 48.1591 50.6193 48.1591ZM54.8899 48V46.9062H55.1683C55.397 46.9062 55.5876 46.8615 55.7401 46.772C55.8925 46.6792 56.0152 46.5185 56.108 46.2898C56.2041 46.0578 56.277 45.7363 56.3267 45.3253C56.3797 44.911 56.4179 44.384 56.4411 43.7443L56.5803 40.3636H61.6712V48H60.4979V41.4574H57.6939L57.5746 44.1818C57.5481 44.8082 57.4917 45.3601 57.4055 45.8374C57.3227 46.3113 57.1951 46.709 57.0227 47.0305C56.8537 47.352 56.6283 47.594 56.3466 47.7564C56.0649 47.9188 55.7119 48 55.2876 48H54.8899ZM64.8381 43.1278H67.0256C67.9205 43.1278 68.6049 43.3549 69.0788 43.8089C69.5528 44.263 69.7898 44.8381 69.7898 45.5341C69.7898 45.9915 69.6837 46.4074 69.4716 46.782C69.2595 47.1532 68.9479 47.4498 68.5369 47.6719C68.1259 47.8906 67.6222 48 67.0256 48H63.8239V40.3636H64.9972V46.9062H67.0256C67.4896 46.9062 67.8707 46.7836 68.169 46.5384C68.4673 46.2931 68.6165 45.9782 68.6165 45.5938C68.6165 45.1894 68.4673 44.8596 68.169 44.6044C67.8707 44.3492 67.4896 44.2216 67.0256 44.2216H64.8381V43.1278Z" fill="#BF1010"/>
        </g>
        <defs>
        <clipPath id="clip0_1_2">
        <rect width="100" height="93.1765" fill="transparent"/>
        </clipPath>
        </defs>
        </svg>
